<svg xmlns="http://www.w3.org/2000/svg" style="display: none;">
  <symbol id="search" viewBox="0 0 24 24">
    <path fill="currentColor" d="M10.5 3a7.5 7.5 0 1 0 4.73 13.32l4.72 4.73 1.41-1.41-4.73-4.72A7.5 7.5 0 0 0 10.5 3Zm0 2a5.5 5.5 0 1 1 0 11a5.5 5.5 0 0 1 0-11Z"/>
  </symbol>

  <symbol id="sun" viewBox="0 0 24 24">
    <path fill="currentColor" d="M12 5a1 1 0 0 1-1-1V2h2v2a1 1 0 0 1-1 1Zm0 14a1 1 0 0 1 1 1v2h-2v-2a1 1 0 0 1 1-1Zm7-6a1 1 0 0 1 1-1h2v2h-2a1 1 0 0 1-1-1ZM2 12a1 1 0 0 1 1-1h2v2H3a1 1 0 0 1-1-1ZM12 7a5 5 0 1 0 5 5a5 5 0 0 0-5-5Z"/>
  </symbol>

  <symbol id="moon" viewBox="0 0 24 24">
    <path fill="currentColor" d="M14.53 3.47A9 9 0 1 0 20.53 18 7 7 0 1 1 14.53 3.47Z"/>
  </symbol>

  <symbol id="share" viewBox="0 0 24 24">
    <path fill="currentColor" d="M18 16a3 3 0 0 0-2.39 1.19l-6.52-3.26a3.1 3.1 0 0 0 0-1.86l6.52-3.26A3 3 0 1 0 15 7a3.1 3.1 0 0 0 .09.74L8.57 11A3 3 0 1 0 9 13a3.1 3.1 0 0 0-.09-.74l6.52 3.26A3 3 0 1 0 18 16Z"/>
  </symbol>

  <symbol id="map" viewBox="0 0 24 24">
    <path fill="currentColor" d="M15 4.5l-6 2L4 4.5v15l5 2l6-2l5 2v-15l-5-2Zm-1 2.3v10.9l-4 1.33V8.13l4-1.33Zm-8-.27l2 0.8v10.9l-2-.8V6.53Zm12 10.94l-2-.8V5.77l2 .8v10.9Z"/>
  </symbol>

  <symbol id="route" viewBox="0 0 24 24">
    <path fill="currentColor" d="M6 19a3 3 0 1 1 2.83-4H11a3 3 0 0 0 3-3V8.83A3 3 0 1 1 16 6h-2a1 1 0 0 0-1 1v5a5 5 0 0 1-5 5H8.83A3 3 0 0 1 6 19Zm0-2a1 1 0 1 0 0 2a1 1 0 0 0 0-2Zm10-12a1 1 0 1 0 0 2a1 1 0 0 0 0-2Z"/>
  </symbol>
</svg>