<?xml version="1.0" encoding="UTF-8"?>
<svg xmlns="http://www.w3.org/2000/svg" style="display: none;">
    <symbol id="icon-home" viewBox="0 0 24 24" fill="none" stroke="currentColor" stroke-width="2" stroke-linecap="round"
            stroke-linejoin="round">
        <path d="M3 9l9-7 9 7v11a2 2 0 0 1-2 2H5a2 2 0 0 1-2-2z"></path>
        <polyline points="9 22 9 12 15 12 15 22"></polyline>
    </symbol>

    <symbol id="icon-search" viewBox="0 0 24 24" fill="none" stroke="currentColor" stroke-width="2"
            stroke-linecap="round" stroke-linejoin="round">
        <circle cx="11" cy="11" r="8"></circle>
        <line x1="21" y1="21" x2="16.65" y2="16.65"></line>
    </symbol>

    <symbol id="icon-reports" viewBox="0 0 24 24" fill="none" stroke="currentColor" stroke-width="2"
            stroke-linecap="round" stroke-linejoin="round">
        <line x1="18" y1="20" x2="18" y2="10"></line>
        <line x1="12" y1="20" x2="12" y2="4"></line>
        <line x1="6" y1="20" x2="6" y2="14"></line>
    </symbol>

    <symbol id="icon-bank" viewBox="0 0 24 24" fill="none" stroke="currentColor" stroke-width="2" stroke-linecap="round"
            stroke-linejoin="round">
        <rect x="2" y="5" width="20" height="14" rx="2"></rect>
        <line x1="2" y1="10" x2="22" y2="10"></line>
    </symbol>

    <symbol id="icon-user" viewBox="0 0 24 24" fill="none" stroke="currentColor" stroke-width="2" stroke-linecap="round"
            stroke-linejoin="round">
        <path d="M20 21v-2a4 4 0 0 0-4-4H8a4 4 0 0 0-4 4v2"></path>
        <circle cx="12" cy="7" r="4"></circle>
    </symbol>

    <symbol id="icon-logout" viewBox="0 0 24 24" fill="none" stroke="currentColor" stroke-width="2"
            stroke-linecap="round" stroke-linejoin="round">
        <path d="M9 21H5a2 2 0 0 1-2-2V5a2 2 0 0 1 2-2h4"></path>
        <polyline points="16 17 21 12 16 7"></polyline>
        <line x1="21" y1="12" x2="9" y2="12"></line>
    </symbol>

    <symbol id="curr-usd" viewBox="0 0 24 24" fill="none" stroke="currentColor" stroke-width="2" stroke-linecap="round"
            stroke-linejoin="round">
        <line x1="12" y1="1" x2="12" y2="23"></line>
        <path d="M17 5H9.5a3.5 3.5 0 0 0 0 7h5a3.5 3.5 0 0 1 0 7H6"></path>
    </symbol>

    <symbol id="curr-eur" viewBox="0 0 24 24" fill="none" stroke="currentColor" stroke-width="2" stroke-linecap="round"
            stroke-linejoin="round">
        <path d="M17.5 19.1A8.5 8.5 0 1 1 17.5 4.9"></path>
        <path d="M1.5 10h10"></path>
        <path d="M1.5 14h10"></path>
    </symbol>

    <symbol id="curr-gbp" viewBox="0 0 24 24" fill="none" stroke="currentColor" stroke-width="2" stroke-linecap="round"
            stroke-linejoin="round">
        <path d="M18 7a6 6 0 1 0-12 0v11a2 2 0 0 0 2 2h10"></path>
        <path d="M3 13h9"></path>
    </symbol>

    <symbol id="curr-cny" viewBox="0 0 24 24" fill="none" stroke="currentColor" stroke-width="2" stroke-linecap="round"
            stroke-linejoin="round">
        <path d="M6 3l6 9 6-9"></path>
        <path d="M12 12v10"></path>
        <path d="M7 14h10"></path>
        <path d="M7 18h10"></path>
    </symbol>

    <symbol id="curr-try" viewBox="0 0 24 24" fill="none" stroke="currentColor" stroke-width="2" stroke-linecap="round"
            stroke-linejoin="round">
        <path d="M8 3v12c0 4 4 6 8 6"></path>
        <path d="M5 10l12-3"></path>
        <path d="M5 14l12-3"></path>
    </symbol>

    <symbol id="curr-kzt" viewBox="0 0 24 24" fill="none" stroke="currentColor" stroke-width="2" stroke-linecap="round"
            stroke-linejoin="round">
        <path d="M6 10h12"></path>
        <path d="M6 6h12"></path>
        <path d="M12 10v10"></path>
    </symbol>

    <symbol id="curr-amd" viewBox="0 0 24 24" fill="none" stroke="currentColor" stroke-width="2.2"
            stroke-linecap="round" stroke-linejoin="round">
        <path d="M17 21V7"/>
        <path d="M17 7a6 5 0 0 0-12 0v6"/>
        <path d="M10 12h12"/>
        <path d="M10 15h12"/>
    </symbol>

    <symbol id="curr-jpy" viewBox="0 0 24 24" fill="none" stroke="currentColor" stroke-width="2" stroke-linecap="round"
            stroke-linejoin="round">
        <path d="M6 3l6 9 6-9"></path>
        <path d="M12 12v10"></path>
        <path d="M7 14h10"></path>
        <path d="M7 18h10"></path>
    </symbol>
</svg>